<?xml version="1.0" encoding="iso-8859-1"?>
<!-- Generator: Adobe Illustrator 22.1.0, SVG Export Plug-In . SVG Version: 6.00 Build 0)  -->
<svg version="1.1" id="Capa_1" xmlns="http://www.w3.org/2000/svg" xmlns:xlink="http://www.w3.org/1999/xlink" x="0px" y="0px"
	 viewBox="-49 141 512 512" style="enable-background:new -49 141 512 512;" xml:space="preserve">
<g>
	<path d="M388.02,215.98C339.667,167.629,275.38,141,207,141S74.333,167.629,25.98,215.98C-22.371,264.333-49,328.62-49,397
		s26.629,132.667,74.98,181.02C74.333,626.371,138.62,653,207,653s132.667-26.629,181.02-74.98C436.371,529.667,463,465.38,463,397
		S436.371,264.333,388.02,215.98z M366.806,556.806C324.12,599.492,267.367,623,207,623S89.88,599.492,47.194,556.806
		C4.508,514.12-19,457.367-19,397S4.508,279.88,47.194,237.194S146.633,171,207,171s117.12,23.508,159.806,66.194
		S433,336.633,433,397S409.492,514.12,366.806,556.806z"/>
	<rect x="192" y="221" width="30" height="60"/>
	<rect x="118.999" y="240.563" transform="matrix(0.866 -0.5 0.5 0.866 -117.3307 103.2511)" width="29.999" height="59.999"/>
	<rect x="65.561" y="294.003" transform="matrix(0.5 -0.866 0.866 0.5 -240.3123 231.7648)" width="29.999" height="59.999"/>
	<rect x="31" y="382" width="60" height="30"/>
	<rect x="323" y="382" width="60" height="30"/>
	<rect x="303.434" y="308.998" transform="matrix(0.866 -0.5 0.5 0.866 -117.3289 210.1297)" width="59.999" height="29.999"/>
	<rect x="250" y="255.566" transform="matrix(0.5 -0.866 0.866 0.5 -94.3189 377.7645)" width="59.999" height="29.999"/>
	<path d="M222,454.58V332h-30v122.58c-17.459,6.192-30,22.865-30,42.42c0,24.813,20.187,45,45,45s45-20.187,45-45
		C252,477.445,239.459,460.772,222,454.58z M207,512c-8.271,0-15-6.729-15-15s6.729-15,15-15s15,6.729,15,15S215.271,512,207,512z"
		/>
</g>
</svg>
