<?xml version="1.0" encoding="iso-8859-1"?>
<!-- Generator: Adobe Illustrator 22.1.0, SVG Export Plug-In . SVG Version: 6.00 Build 0)  -->
<svg version="1.1" id="Layer_1" xmlns="http://www.w3.org/2000/svg" xmlns:xlink="http://www.w3.org/1999/xlink" x="0px" y="0px"
	 viewBox="0 0 236 234.696" style="enable-background:new 0 0 236 234.696;" xml:space="preserve">
<g>
	<g>
		<defs>
			<rect id="SVGID_1_" x="10" y="10.348" width="215.76" height="215.972"/>
		</defs>
		<clipPath id="SVGID_2_">
			<use xlink:href="#SVGID_1_"  style="overflow:visible;"/>
		</clipPath>
		<path style="clip-path:url(#SVGID_2_);fill-rule:evenodd;clip-rule:evenodd;" d="M224.332,105.918
			c-0.34-3.023-3.863-5.296-6.91-5.296c-9.852,0-18.594-5.782-22.262-14.731c-3.742-9.164-1.328-19.848,6.012-26.582
			c2.312-2.113,2.594-5.652,0.656-8.109c-5.043-6.403-10.773-12.188-17.031-17.2c-2.449-1.964-6.047-1.691-8.172,0.661
			c-6.406,7.097-17.918,9.734-26.813,6.023c-9.253-3.894-15.093-13.273-14.519-23.34c0.187-3.164-2.125-5.914-5.277-6.281
			c-8.032-0.93-16.133-0.957-24.188-0.063c-3.113,0.344-5.426,3.028-5.32,6.153c0.347,9.969-5.559,19.183-14.723,22.937
			c-8.789,3.59-20.219,0.973-26.613-6.062c-2.113-2.317-5.649-2.602-8.113-0.68c-6.442,5.055-12.301,10.844-17.391,17.195
			c-1.984,2.469-1.691,6.047,0.641,8.168c7.484,6.778,9.898,17.555,6.011,26.825c-3.711,8.839-12.886,14.531-23.39,14.531
			c-3.41-0.109-5.836,2.18-6.211,5.281c-0.946,8.074-0.957,16.305-0.047,24.445c0.34,3.036,3.969,5.29,7.051,5.29
			c9.363-0.239,18.347,5.554,22.121,14.73c3.758,9.164,1.34,19.844-6.012,26.586c-2.301,2.113-2.594,5.644-0.652,8.098
			c4.992,6.363,10.726,12.152,17.004,17.207c2.464,1.984,6.046,1.707,8.183-0.649c6.434-7.113,17.942-9.746,26.801-6.027
			c9.281,3.883,15.117,13.262,14.547,23.332c-0.188,3.164,2.133,5.922,5.273,6.281c4.11,0.481,8.242,0.719,12.387,0.719
			c3.934,0,7.867-0.215,11.801-0.652c3.117-0.344,5.426-3.032,5.32-6.157c-0.359-9.965,5.559-19.179,14.711-22.926
			c8.848-3.613,20.227-0.968,26.625,6.055c2.125,2.313,5.637,2.594,8.113,0.68c6.43-5.043,12.278-10.828,17.391-17.195
			c1.984-2.465,1.703-6.047-0.641-8.172c-7.484-6.774-9.91-17.555-6.023-26.817c3.652-8.718,12.488-14.574,21.992-14.574
			l1.328,0.035c3.086,0.25,5.922-2.125,6.293-5.273C225.234,122.282,225.246,114.059,224.332,105.918L224.332,105.918z
			 M117.672,153.942c-19.774,0-35.856-16.086-35.856-35.859c0-19.774,16.082-35.86,35.856-35.86
			c19.777,0,35.859,16.086,35.859,35.86C153.531,137.856,137.449,153.942,117.672,153.942L117.672,153.942z M117.672,153.942"/>
	</g>
</g>
</svg>
