<?xml version="1.0" encoding="iso-8859-1"?>
<!-- Generator: Adobe Illustrator 22.1.0, SVG Export Plug-In . SVG Version: 6.00 Build 0)  -->
<svg version="1.1" id="Layer_1" xmlns="http://www.w3.org/2000/svg" xmlns:xlink="http://www.w3.org/1999/xlink" x="0px" y="0px"
	 viewBox="0 0 54 48" style="enable-background:new 0 0 54 48;" xml:space="preserve">
<path d="M51.39,34.81l-9.36-4.06l-13.47,5.39c-0.49,0.19-1.05,0.29-1.62,0.29c-0.56,0-1.13-0.09-1.61-0.29l-13.48-5.39l-9.36,4.06
	c-0.43,0.19-0.42,0.48,0.01,0.65l23.66,9.46c0.43,0.17,1.13,0.17,1.57,0l23.66-9.46C51.81,35.28,51.81,34.99,51.39,34.81
	L51.39,34.81z M51.39,34.81"/>
<path d="M51.39,23.88l-9.36-4.06l-13.47,5.39c-0.49,0.19-1.05,0.29-1.62,0.29c-0.57,0-1.14-0.1-1.62-0.29l-13.47-5.39l-9.36,4.06
	c-0.43,0.18-0.42,0.47,0.01,0.64l23.66,9.46c0.43,0.17,1.13,0.17,1.57,0l23.66-9.46C51.81,24.35,51.81,24.07,51.39,23.88
	L51.39,23.88z M51.39,23.88"/>
<path d="M2.5,13.6l12.34,4.93l11.32,4.53c0.43,0.17,1.13,0.17,1.57,0l11.32-4.53l12.33-4.93c0.43-0.17,0.44-0.46,0.01-0.65
	L27.71,2.69c-0.42-0.18-1.12-0.18-1.54,0L2.49,12.95C2.06,13.13,2.06,13.43,2.5,13.6L2.5,13.6z M2.5,13.6"/>
</svg>
