<?xml version="1.0" encoding="iso-8859-1"?>
<!-- Generator: Adobe Illustrator 22.1.0, SVG Export Plug-In . SVG Version: 6.00 Build 0)  -->
<svg version="1.1" id="Layer_1" xmlns="http://www.w3.org/2000/svg" xmlns:xlink="http://www.w3.org/1999/xlink" x="0px" y="0px"
	 viewBox="0 0 51 46" style="enable-background:new 0 0 51 46;" xml:space="preserve">
<g>
	<g>
		<defs>
			<rect id="SVGID_1_" x="3.5" y="4" width="43.92" height="38"/>
		</defs>
		<clipPath id="SVGID_2_">
			<use xlink:href="#SVGID_1_"  style="overflow:visible;"/>
		</clipPath>
		<path style="clip-path:url(#SVGID_2_);" d="M47.098,32.574l-8.289-3.594l-11.934,4.778c-0.43,0.168-0.934,0.254-1.437,0.254
			c-0.5,0-1-0.082-1.43-0.254L12.07,28.98l-8.289,3.594c-0.379,0.164-0.375,0.422,0.008,0.574l20.957,8.383
			c0.383,0.153,1.004,0.153,1.387,0l20.957-8.383C47.473,32.996,47.477,32.738,47.098,32.574L47.098,32.574z M47.098,32.574"/>
		<path style="clip-path:url(#SVGID_2_);" d="M47.098,22.895l-8.293-3.594l-11.93,4.773c-0.43,0.172-0.934,0.258-1.434,0.258
			c-0.503,0-1.007-0.086-1.437-0.258L12.07,19.301l-8.289,3.594c-0.379,0.16-0.375,0.417,0.008,0.57l20.957,8.383
			c0.383,0.152,1.004,0.152,1.387,0l20.957-8.383C47.473,23.312,47.477,23.059,47.098,22.895L47.098,22.895z M47.098,22.895"/>
		<path style="clip-path:url(#SVGID_2_);" d="M3.789,13.785l10.93,4.371l10.027,4.012c0.383,0.152,1.004,0.152,1.387,0l10.031-4.012
			l10.926-4.371c0.383-0.152,0.387-0.41,0.008-0.574l-20.977-9.09c-0.375-0.16-0.988-0.16-1.363,0l-20.977,9.09
			C3.402,13.375,3.406,13.633,3.789,13.785L3.789,13.785z M3.789,13.785"/>
	</g>
</g>
</svg>
