<?xml version="1.0" encoding="iso-8859-1"?>
<!-- Generator: Adobe Illustrator 22.1.0, SVG Export Plug-In . SVG Version: 6.00 Build 0)  -->
<svg version="1.1" id="Capa_1" xmlns="http://www.w3.org/2000/svg" xmlns:xlink="http://www.w3.org/1999/xlink" x="0px" y="0px"
	 width="512px" height="512px" viewBox="-49 141 512 512" style="enable-background:new -49 141 512 512;" xml:space="preserve">
<path d="M206,200.938c5.925,0.588,10.99-4.027,10.99-9.938c0-5.538-4.46-9.99-9.99-9.99c-5.538,0-9.99,4.46-9.99,9.99
	C197.01,196.147,200.882,200.43,206,200.938z"/>
<path d="M407,201c-27.57,0-50-22.43-50-50c0-5.522-4.478-10-10-10H67c-5.522,0-10,4.478-10,10c0,27.57-22.43,50-50,50
	c-5.522,0-10,4.478-10,10v163.19c0,127.177,82.895,241.135,207.128,278.389c0.937,0.28,1.904,0.421,2.872,0.421
	s1.937-0.141,2.873-0.422C331.415,616.119,417,504.149,417,374.19V211C417,205.478,412.522,201,407,201z M397,374.19
	c0,119.448-76.221,222.892-190,258.353C94.128,597.365,17,492.984,17,374.19V220.288C47.611,215.89,71.89,191.611,76.288,161
	h261.424c4.398,30.611,28.677,54.89,59.288,59.288V374.19z"/>
<path d="M324.51,186.988c-1.594-3.638-5.188-5.988-9.16-5.988h-68.37c-5.522,0-10,4.478-10,10s4.478,10,10,10h62.047
	c10.565,20.681,27.292,37.407,47.973,47.973V374.19c0,97.863-58.749,182.303-150,216.104C115.749,556.492,57,472.053,57,374.19
	V248.973c20.681-10.566,37.407-27.292,47.973-47.973h62.047c5.522,0,10-4.478,10-10s-4.478-10-10-10H98.65
	c-3.972,0-7.566,2.351-9.16,5.988c-9.133,20.854-25.648,37.369-46.502,46.502c-3.637,1.594-5.988,5.189-5.988,9.16v131.54
	c0,107.213,66.311,200.653,166.664,236.166c1.079,0.382,2.207,0.573,3.336,0.573s2.257-0.191,3.336-0.573
	C310.605,574.873,377,481.49,377,374.19V242.65c0-3.972-2.351-7.566-5.988-9.16C350.158,224.357,333.643,207.842,324.51,186.988z"/>
<path d="M117,377c0,49.626,40.374,90,90,90s90-40.374,90-90s-40.374-90-90-90S117,327.374,117,377z M277,377
	c0,38.598-31.402,70-70,70s-70-31.402-70-70s31.402-70,70-70S277,338.402,277,377z"/>
<path d="M184.071,379.929c-3.906-3.904-10.236-3.904-14.143,0c-3.905,3.905-3.905,10.237,0,14.143l20,20
	C191.882,416.023,194.44,417,197,417s5.118-0.977,7.071-2.929l50-50c3.905-3.905,3.905-10.237,0-14.143
	c-3.906-3.904-10.236-3.904-14.143,0L197,392.857L184.071,379.929z"/>
</svg>
