<?xml version="1.0" encoding="iso-8859-1"?>
<!-- Generator: Adobe Illustrator 22.1.0, SVG Export Plug-In . SVG Version: 6.00 Build 0)  -->
<svg version="1.1" id="Layer_1" xmlns="http://www.w3.org/2000/svg" xmlns:xlink="http://www.w3.org/1999/xlink" x="0px" y="0px"
	 viewBox="0 0 29.5 22" style="enable-background:new 0 0 29.5 22;" xml:space="preserve">
<path style="fill-rule:evenodd;clip-rule:evenodd;" d="M14.75,15.8c-1.33,0-2.4,1.08-2.4,2.4c0,1.32,1.07,2.4,2.4,2.4
	c1.32,0,2.4-1.07,2.4-2.4C17.15,16.88,16.07,15.8,14.75,15.8L14.75,15.8z M27.61,7.41C24.4,3.59,19.71,1.4,14.75,1.4
	S5.1,3.59,1.89,7.41C1.46,7.92,1.53,8.67,2.04,9.1c0.22,0.19,0.5,0.28,0.77,0.28c0.34,0,0.68-0.14,0.92-0.43
	C6.48,5.68,10.5,3.8,14.75,3.8c4.25,0,8.27,1.88,11.02,5.15c0.23,0.29,0.57,0.43,0.92,0.43c0.27,0,0.55-0.09,0.77-0.28
	C27.97,8.67,28.04,7.92,27.61,7.41L27.61,7.41z M14.75,6.2c-3.54,0-6.89,1.56-9.18,4.29C5.14,11,5.2,11.76,5.71,12.18
	c0.23,0.19,0.5,0.28,0.77,0.28c0.34,0,0.68-0.14,0.92-0.43c1.84-2.18,4.51-3.44,7.35-3.44s5.51,1.25,7.35,3.44
	c0.24,0.28,0.58,0.43,0.92,0.43c0.27,0,0.55-0.09,0.77-0.28c0.51-0.43,0.57-1.18,0.14-1.69C21.64,7.76,18.29,6.2,14.75,6.2
	L14.75,6.2z M14.75,11c-2.13,0-4.14,0.94-5.51,2.57c-0.43,0.5-0.36,1.26,0.15,1.69c0.22,0.19,0.5,0.28,0.77,0.28
	c0.34,0,0.68-0.14,0.92-0.43c0.91-1.09,2.25-1.72,3.67-1.72s2.76,0.63,3.67,1.72c0.24,0.28,0.58,0.43,0.92,0.43
	c0.27,0,0.55-0.09,0.77-0.28c0.51-0.43,0.57-1.18,0.15-1.69C18.89,11.94,16.88,11,14.75,11L14.75,11z M14.75,11"/>
</svg>
