<?xml version="1.0" encoding="utf-8"?>
<!-- Generator: Adobe Illustrator 22.1.0, SVG Export Plug-In . SVG Version: 6.00 Build 0)  -->
<svg version="1.1" id="Layer_1" xmlns="http://www.w3.org/2000/svg" xmlns:xlink="http://www.w3.org/1999/xlink" x="0px" y="0px"
	 width="29px" height="22px" viewBox="0 0 29 22" style="enable-background:new 0 0 29 22;" xml:space="preserve">
<g>
	<g>
		<defs>
			<rect id="SVGID_1_" x="1.06" y="1" width="26.88" height="20"/>
		</defs>
		<clipPath id="SVGID_2_">
			<use xlink:href="#SVGID_1_"  style="overflow:visible;"/>
		</clipPath>
		<path style="clip-path:url(#SVGID_2_);fill-rule:evenodd;clip-rule:evenodd;" d="M14.2,15.4c-1.33,0-2.4,1.08-2.4,2.4
			c0,1.32,1.07,2.4,2.4,2.4c1.32,0,2.4-1.07,2.4-2.4C16.6,16.48,15.53,15.4,14.2,15.4L14.2,15.4z M27.06,7.01
			C23.85,3.19,19.16,1,14.2,1S4.55,3.19,1.34,7.01C0.92,7.52,0.98,8.27,1.49,8.7c0.22,0.19,0.5,0.28,0.77,0.28
			c0.34,0,0.68-0.14,0.92-0.43C5.93,5.28,9.95,3.4,14.2,3.4c4.25,0,8.27,1.88,11.02,5.15c0.23,0.29,0.57,0.43,0.92,0.43
			c0.27,0,0.55-0.09,0.77-0.28C27.42,8.27,27.49,7.52,27.06,7.01L27.06,7.01z M14.2,5.8c-3.54,0-6.89,1.56-9.18,4.29
			c-0.43,0.51-0.36,1.27,0.14,1.69c0.23,0.19,0.5,0.28,0.77,0.28c0.34,0,0.68-0.14,0.92-0.43C8.69,9.45,11.37,8.2,14.2,8.2
			s5.51,1.25,7.35,3.44c0.24,0.28,0.58,0.43,0.92,0.43c0.27,0,0.55-0.09,0.77-0.28c0.51-0.43,0.57-1.18,0.14-1.69
			C21.09,7.36,17.74,5.8,14.2,5.8L14.2,5.8z M14.2,10.6c-2.13,0-4.14,0.94-5.51,2.57c-0.43,0.5-0.36,1.26,0.15,1.69
			c0.22,0.19,0.5,0.28,0.77,0.28c0.34,0,0.68-0.14,0.92-0.43C11.44,13.63,12.78,13,14.2,13s2.76,0.63,3.67,1.72
			c0.24,0.28,0.58,0.43,0.92,0.43c0.27,0,0.55-0.09,0.77-0.28c0.51-0.43,0.57-1.18,0.15-1.69C18.34,11.54,16.33,10.6,14.2,10.6
			L14.2,10.6z M14.2,10.6"/>
	</g>
</g>
</svg>
